<?xml version="1.0" encoding="UTF-8"?>
<svg width="137px" height="137px" viewBox="0 0 137 137" version="1.1" xmlns="http://www.w3.org/2000/svg" xmlns:xlink="http://www.w3.org/1999/xlink">
    <!-- Generator: Sketch 49.1 (51147) - http://www.bohemiancoding.com/sketch -->
    <title>pc1</title>
    <desc>Created with Sketch.</desc>
    <defs></defs>
    <g id="Page-1" stroke="none" stroke-width="1" fill="none" fill-rule="evenodd">
        <g id="Apple-TV-Copy-2" transform="translate(-478.000000, -267.000000)">
            <g id="Group-13" transform="translate(478.000000, 267.000000)">
                <circle id="Oval-2-Copy-4" fill="#40A3DE" cx="68.5" cy="68.5" r="68.5"></circle>
                <g id="成本低廉" transform="translate(27.770270, 27.770270)" fill="#FFFFFF" fill-rule="nonzero" stroke="#FFFFFF">
                    <path d="M83.1807054,63.1705953 L83.1807054,53.8346095 L83.1807054,44.193241 C83.1807054,41.7501794 81.0990194,39.5688743 77.2825949,38.0419607 C73.8564866,36.6459254 69.3027984,35.9042817 64.4888994,35.9042817 C63.4480563,35.9042817 62.4072133,35.9479078 61.3663703,36.03516 L61.3663703,20.5478939 C61.3663703,16.6651709 57.940262,13.1314566 51.7819407,10.6447688 C46.3608833,8.46346373 39.2918244,7.24193289 31.7457124,7.11105458 L31.7457124,1.00340034 C31.7457124,0.436261017 31.3120278,0 30.7482378,0 L30.6181324,0 C30.0543425,0 29.6206579,0.436261017 29.6206579,1.00340034 L29.6206579,7.11105458 C22.0745459,7.19830678 15.005487,8.46346373 9.58442956,10.6447688 C3.38273985,13.1314566 0,16.6651709 0,20.5478939 L0,67.4895794 L0.0433684596,67.4895794 C0.260210757,71.197798 3.68631906,74.6006339 9.62779802,77.0000695 C15.3090662,79.2686268 22.8118097,80.5337838 30.7482378,80.5337838 C37.8606652,80.5337838 44.7562503,79.4867573 50.1773077,77.610835 C50.6977292,77.8725916 51.2181507,78.1343482 51.8253092,78.3524787 C55.2514175,79.748514 59.8051057,80.4901577 64.6190047,80.4901577 C69.4329038,80.4901577 73.986592,79.748514 77.4127003,78.3524787 C81.2291248,76.8255651 83.3108108,74.6442601 83.3108108,72.2011984 L83.3108108,71.8958156 L83.1807054,63.1705953 Z M61.3230018,66.6606834 L61.3230018,61.7309339 C62.3638448,61.8181861 63.4046879,61.8618122 64.4888994,61.8618122 C69.3027984,61.8618122 73.8564866,61.1201685 77.2825949,59.7241333 C79.0607018,58.9824895 80.4918609,58.1535936 81.4893355,57.1501933 L81.4893355,63.1269692 C81.3592301,64.5666306 79.7112287,66.0935441 76.9356473,67.315075 C73.6396443,68.7547363 69.2160615,69.5400061 64.4888994,69.5400061 C63.317951,69.5400061 62.1036341,69.49638 60.9326857,69.3655017 C61.1928964,68.623858 61.3230018,67.8822143 61.3230018,67.0969445 L61.3230018,66.6606834 Z M76.9356473,57.891837 C73.6396443,59.3314983 69.2160615,60.1167682 64.4888994,60.1167682 C63.4480563,60.1167682 62.3638448,60.0731421 61.3230018,59.9858899 L61.3230018,52.3513221 C62.3638448,52.4385743 63.4046879,52.4822004 64.4888994,52.4822004 C69.3027984,52.4822004 73.8564866,51.7405566 77.2825949,50.3445214 C79.1040702,49.6028777 80.4918609,48.7739817 81.4893355,47.7705814 L81.4893355,53.7473573 C81.3592301,55.1870187 79.7112287,56.7139322 76.9356473,57.891837 Z M76.9356473,39.8306309 C79.841334,41.0957878 81.4893355,42.6663275 81.4893355,44.193241 C81.4893355,45.7201546 79.841334,47.2906943 76.9356473,48.5558512 C73.6396443,49.9955126 69.2160615,50.7807824 64.4888994,50.7807824 C63.4480563,50.7807824 62.3638448,50.7371563 61.3230018,50.6499041 L61.3230018,37.736578 C62.3638448,37.6493258 63.4046879,37.6056997 64.4888994,37.6056997 C69.2160615,37.6056997 73.6396443,38.3909695 76.9356473,39.8306309 Z M2.12505452,51.1297912 L2.12505452,41.2266661 C3.77305598,43.0153363 6.28842664,44.6295021 9.49769264,45.9382851 C15.1789608,48.2068424 22.6817043,49.4719994 30.6181324,49.4719994 C36.2126637,49.4719994 41.6770896,48.8612339 46.3608833,47.6397031 C46.6644625,47.5524509 46.9246732,47.5088248 47.184884,47.4215726 C47.2716209,47.4215726 47.3149894,47.3779465 47.4017263,47.3779465 L47.4884632,47.3779465 C47.8354109,47.2906943 48.1389901,47.2034421 48.4859378,47.0725638 C49.6135177,46.7235549 50.6977292,46.33092 51.7385723,45.9382851 C54.9912067,44.6295021 57.4632089,43.0589624 59.1112104,41.2702922 L59.1112104,51.871435 C58.8943681,54.0963661 56.6825766,56.4085495 52.8661522,58.328098 C52.5192045,58.5026024 52.1288884,58.6771068 51.7385723,58.8516112 C51.6084669,58.8952373 51.52173,58.9388634 51.3916246,58.9824895 C50.0472023,59.5496289 48.5726747,60.0731421 47.0114102,60.5530292 C46.7511994,60.6402814 46.4909886,60.6839075 46.1874094,60.7711597 C41.5469843,62.0363167 36.1692953,62.6907082 30.6615009,62.6907082 C22.7684413,62.6907082 15.3958031,61.3819251 9.88800878,58.9824895 C4.98737285,56.8448105 2.16842298,54.1399922 2.16842298,51.5224261 L2.12505452,51.1297912 Z M59.1112104,36.5586732 C59.0678419,36.8204299 59.0244735,37.0821865 58.8943681,37.3875692 C58.1137358,39.6125004 55.4682598,41.7938055 51.434993,43.5388495 C50.1773077,44.0623627 48.789517,44.585876 47.3583578,45.022137 C46.9680417,45.1530153 46.5777256,45.2402675 46.2307779,45.3275197 C41.5903527,46.5926766 36.2126637,47.2470682 30.7048694,47.2470682 C22.8118097,47.2470682 15.4391716,45.9382851 9.93137724,43.5388495 C5.03074131,41.4011705 2.21179144,38.6963522 2.21179144,36.0787861 L2.21179144,25.7830261 C3.8597929,27.5716963 6.3317951,29.142236 9.58442956,30.4946451 C15.2656978,32.7632024 22.7684413,34.0283593 30.7048694,34.0283593 C38.6412975,34.0283593 46.144041,32.7632024 51.8253092,30.4946451 C55.0779436,29.1858621 57.5499458,27.6153224 59.1979473,25.7830261 L59.1979473,36.3841688 C59.1112104,36.4277949 59.1112104,36.5150471 59.1112104,36.5586732 Z M9.84464032,13.0878305 C15.0922239,10.8192732 22.0745459,9.51049018 29.533921,9.37961187 L29.533921,24.866878 L22.6817043,17.9739539 C22.2913882,17.581319 21.6842298,17.581319 21.2939136,17.9739539 L21.2071767,18.0612061 C20.8168606,18.453841 20.8168606,19.0646065 21.2071767,19.4572414 L29.7073948,28.0079573 C29.8375002,28.1824617 30.010974,28.3569661 30.2278163,28.4442183 C30.3579217,28.4878444 30.4880271,28.5314705 30.6615009,28.5314705 C30.7916063,28.5314705 30.9217117,28.4878444 31.0951855,28.4442183 C31.3120278,28.3569661 31.4855016,28.2260878 31.615607,28.0079573 L40.1158251,19.4572414 C40.2892989,19.282737 40.4194043,19.0209804 40.4194043,18.7592237 C40.4194043,18.4974671 40.3326674,18.2357105 40.1158251,18.0612061 L40.0290882,17.9739539 C39.638772,17.581319 39.0316136,17.581319 38.6412975,17.9739539 L31.7890809,24.866878 L31.7890809,9.37961187 C39.2484559,9.51049018 46.2307779,10.8192732 51.4783615,13.0878305 C56.3789974,15.2255095 59.1979473,17.9303278 59.1979473,20.5478939 C59.1979473,23.16546 56.3789974,25.8702783 51.4783615,28.0079573 C45.9705671,30.4073929 38.597929,31.716176 30.7048694,31.716176 C22.8118097,31.716176 15.4391716,30.4073929 9.93137724,28.0079573 C5.03074131,25.8702783 2.21179144,23.16546 2.21179144,20.5478939 C2.12505452,17.9303278 4.94400439,15.2255095 9.84464032,13.0878305 Z M30.6615009,78.2652265 C22.7684413,78.2652265 15.3958031,76.9564434 9.88800878,74.5570078 C4.98737285,72.4193289 2.16842298,69.7145106 2.16842298,67.0969445 L2.16842298,56.7575583 C3.81642444,58.5462285 6.3317951,60.1603943 9.5410611,61.4691773 C15.2223293,63.7377346 22.7250728,65.0028916 30.6615009,65.0028916 C36.2560322,65.0028916 41.7204581,64.3921261 46.4042517,63.1705953 C46.7078309,63.0833431 46.9680417,63.039717 47.2282525,62.9524648 C48.8328855,62.5162038 50.3507815,61.9926906 51.7385723,61.4691773 C52.6059414,61.1201685 53.4299422,60.7711597 54.167206,60.3785248 C54.5575221,60.1603943 54.9478383,59.9422638 55.3381544,59.7677594 C56.8994189,58.8516112 58.1571043,57.891837 59.1112104,56.8448105 L59.1112104,67.4895794 C59.0678419,68.1003448 58.8509996,68.7111102 58.4606835,69.3655017 C58.3305781,69.6272584 58.1571043,69.889015 57.940262,70.1071455 C56.6825766,71.7649373 54.3840483,73.335477 51.3916246,74.6442601 C50.7844661,74.9060167 50.1339392,75.1677733 49.4400439,75.4295299 C49.0930962,75.5604082 48.7461485,75.6912865 48.3558324,75.7785387 C43.2817226,77.3927045 37.1667698,78.2652265 30.6615009,78.2652265 Z M76.9356473,76.6074346 C73.6396443,78.047096 69.2160615,78.8323658 64.4888994,78.8323658 C59.8918426,78.8323658 55.6417336,78.0907221 52.3457307,76.7383129 C56.0320497,75.1677733 58.7208942,73.1609726 60.1520534,70.9796675 C61.5832126,71.1105458 63.0143717,71.197798 64.4888994,71.197798 C69.3027984,71.197798 73.8564866,70.4561543 77.2825949,69.060119 C79.0607018,68.3184753 80.4918609,67.4895794 81.4893355,66.486179 L81.4893355,72.4193289 C81.4025986,73.8589902 79.7545971,75.3859038 76.9356473,76.6074346 Z" id="Shape"></path>
                </g>
            </g>
        </g>
    </g>
</svg>