<?xml version="1.0" encoding="UTF-8"?>
<svg width="110px" height="110px" viewBox="0 0 110 110" version="1.1" xmlns="http://www.w3.org/2000/svg" xmlns:xlink="http://www.w3.org/1999/xlink">
    <!-- Generator: Sketch 49.1 (51147) - http://www.bohemiancoding.com/sketch -->
    <title>pc10</title>
    <desc>Created with Sketch.</desc>
    <defs></defs>
    <g id="Page-1" stroke="none" stroke-width="1" fill="none" fill-rule="evenodd">
        <g id="PC端" transform="translate(-572.000000, -8130.000000)">
            <g id="Group-50" transform="translate(175.000000, 7920.000000)">
                <g id="Group-25" transform="translate(384.000000, 197.000000)">
                    <circle id="Oval-3-Copy-8" fill="#41A4DF" opacity="0.222979749" cx="68" cy="68" r="55"></circle>
                    <circle id="Oval-3-Copy-12" fill="#41A4DF" opacity="0.696428571" cx="68.5" cy="68.5" r="42.5"></circle>
                    <g id="语音识别" transform="translate(48.000000, 50.000000)" fill="#FFFFFF" fill-rule="nonzero">
                        <path d="M1.48961596,34.9999667 C1.09332233,35.0026244 0.712525299,34.8460912 0.43252897,34.5654327 C0.152532641,34.2847742 -0.00325969067,33.903449 5.172975e-05,33.5068797 C5.172975e-05,32.6751932 0.660984203,32.0137927 1.48961596,32.0137927 L37.5079696,32.0137927 C38.3319952,32.0137927 39,32.6822705 39,33.5068797 C39,34.3314889 38.3319952,34.9999667 37.5079696,34.9999667 L1.48961596,34.9999667 Z M4.30104514,9.32627419 C4.30104514,8.50445937 4.97184228,7.83565511 5.8029402,7.83565511 C6.64390279,7.83565511 7.30483526,8.50692728 7.30483526,9.32627419 L7.30483526,28.9042231 C7.30685638,29.3023231 7.1488699,29.6845243 6.86640916,29.9648643 C6.58394841,30.2452044 6.20072826,30.4001466 5.8029402,30.3948422 C5.40594978,30.3974694 5.02428199,30.2416619 4.74240649,29.9619027 C4.46053099,29.6821435 4.30169266,29.3015028 4.30104514,28.9042231 L4.30104514,9.32627419 Z M31.6927503,6.20189712 C31.6927503,5.37021064 32.3635474,4.68906682 33.20451,4.68906682 C34.035608,4.68906682 34.6842096,5.37021064 34.6842096,6.20189712 L34.6842096,28.9017552 C34.6895205,29.2969828 34.5356511,29.6777173 34.257285,29.9581377 C33.9789188,30.238558 33.5994845,30.3950628 33.20451,30.3923743 C32.8058189,30.3976509 32.421604,30.2430157 32.1375848,29.9629684 C31.8535657,29.682921 31.6933745,29.3007631 31.6927503,28.9017552 L31.6927503,6.20189712 Z M24.8565383,1.49312029 C24.8565383,0.661433817 25.5174708,3.32990506e-05 26.3461025,3.32990506e-05 C26.7423962,-0.00262443362 27.1231932,0.153908821 27.4031895,0.43456733 C27.6831859,0.715225839 27.8389782,1.09655096 27.8356668,1.49312029 L27.8356668,28.9042231 C27.8383148,29.3003663 27.6822295,29.6810527 27.4023059,29.9611744 C27.1223823,30.2412962 26.7419654,30.3974921 26.3461025,30.3948422 C25.9502397,30.3974921 25.5698227,30.2412962 25.2898992,29.9611744 C25.0099756,29.6810527 24.8538903,29.3003663 24.8565383,28.9042231 L24.8565383,1.49312029 Z M17.9981308,11.8312053 C17.9981308,10.9995188 18.6787926,10.3282466 19.5098905,10.3282466 C20.3311238,10.3282466 21.0019209,10.9995188 21.0019209,11.8312053 L21.0019209,28.9042231 C21.0025793,29.3001895 20.845516,29.6800918 20.5654919,29.959851 C20.2854678,30.2396102 19.9055751,30.3961561 19.5098905,30.3948422 C19.1117891,30.398127 18.7287247,30.242845 18.4451409,29.9632268 C18.161557,29.6836086 18.0007364,29.3026115 17.9981308,28.9042231 L17.9981308,11.8312053 Z M11.149588,18.5760098 C11.149588,17.7459487 11.8220093,17.0730512 12.651483,17.0730512 C13.4809568,17.0730512 14.1533781,17.7459487 14.1533781,18.5760098 L14.1533781,28.9042231 C14.1527539,29.303231 13.9925627,29.6853889 13.7085435,29.9654363 C13.4245244,30.2454837 13.0403095,30.4001188 12.6416184,30.3948422 C12.2461343,30.3954974 11.8666239,30.2387398 11.5867428,29.9591235 C11.3068617,29.6795071 11.1495874,29.2999878 11.149588,28.9042231 L11.149588,18.5760098 Z" id="Shape"></path>
                    </g>
                </g>
            </g>
        </g>
    </g>
</svg>