<?xml version="1.0" encoding="UTF-8"?>
<svg width="110px" height="110px" viewBox="0 0 110 110" version="1.1" xmlns="http://www.w3.org/2000/svg" xmlns:xlink="http://www.w3.org/1999/xlink">
    <!-- Generator: Sketch 49.1 (51147) - http://www.bohemiancoding.com/sketch -->
    <title>pc11</title>
    <desc>Created with Sketch.</desc>
    <defs></defs>
    <g id="Page-1" stroke="none" stroke-width="1" fill="none" fill-rule="evenodd">
        <g id="PC端" transform="translate(-991.000000, -7920.000000)">
            <g id="Group-50" transform="translate(175.000000, 7920.000000)">
                <g id="Group-28" transform="translate(816.000000, 0.000000)">
                    <circle id="Oval-3-Copy-3" fill="#41A4DF" opacity="0.222979749" cx="55" cy="55" r="55"></circle>
                    <circle id="Oval-3-Copy-4" fill="#41A4DF" opacity="0.696428571" cx="55.5" cy="55.5" r="42.5"></circle>
                    <g id="号码" transform="translate(37.000000, 39.000000)" fill="#FFFFFF" fill-rule="nonzero">
                        <path d="M3.99999998,8 C1.79601986,8 0,6.20398008 0,4 C0,1.79601987 1.79601991,0 3.99999998,0 C6.20398009,0 7.99999996,1.79104478 8,4 C8,6.20398013 6.20398009,8 3.99999998,8" id="Shape"></path>
                        <path d="M4.04145455,2.00497511 C2.91636364,2.00497511 2,2.9004975 2,4 C2,5.0995025 2.91636364,5.99502489 4.04145455,5.99502489 C5.16654546,5.99502489 6.0829091,5.0995025 6.0829091,4 C6.0829091,2.9004975 5.16654546,2.00497511 4.04145455,2.00497511 Z M18.9069091,8 C16.6516363,8 14.8138182,6.20398008 14.8138182,4 C14.8138182,1.79601987 16.6516364,0 18.9069091,0 C21.1621818,0 23,1.79601992 23,4 C22.9949091,6.20398013 21.1621818,8 18.9069091,8 Z" id="Shape"></path>
                        <path d="M19.0414545,2.00497511 C17.9163636,2.00497511 17,2.9004975 17,4 C17,5.0995025 17.9163636,5.99502489 19.0414545,5.99502489 C20.1665455,5.99502489 21.0829091,5.0995025 21.0829091,4 C21.0778182,2.9004975 20.1665455,2.00497511 19.0414545,2.00497511 Z M33.9069091,8 C31.6516363,8 29.8138182,6.20398008 29.8138182,4 C29.8138182,1.79601987 31.6516364,0 33.9069091,0 C36.1621818,0 38,1.79601992 38,4 C37.9949091,6.20398013 36.1621818,8 33.9069091,8 Z" id="Shape"></path>
                        <path d="M33.9508871,2 C32.8215756,2 31.9017743,2.91984938 31.9017743,4.04922001 C31.9017744,5.17859065 32.8215756,6.09844003 33.9508871,6.09844003 C35.0801987,6.09844003 36,5.17859065 36,4.04922001 C35.99489,2.91984938 35.0750887,2 33.9508871,2 Z M4.10844569,21 C1.84471253,21 0,19.155191 0,16.8913394 C0,14.6274879 1.84471257,12.7826789 4.10844569,12.7826788 C6.37217886,12.7826788 8.21689139,14.6274879 8.21689143,16.8913394 C8.21689143,19.1603012 6.37217886,21 4.10844569,21 Z" id="Shape"></path>
                        <path d="M4.04145455,15.0099502 C2.91636364,15.0099502 2,15.9054726 2,17.0049751 C2,18.1044776 2.91636364,19 4.04145455,19 C5.16654546,19 6.0829091,18.1044776 6.0829091,17.0049751 C6.0829091,15.9054726 5.16654546,15.0099502 4.04145455,15.0099502 Z M18.9069091,21 C16.6516363,21 14.8138182,19.2039801 14.8138182,17 C14.8138182,14.79602 16.6516364,13 18.9069091,13 C21.1621818,13 23,14.7960199 23,17 C22.9949091,19.2089552 21.1621818,21 18.9069091,21 Z" id="Shape"></path>
                        <path d="M19.0414545,14.8606965 C17.9163636,14.8606965 17,15.7562189 17,16.8557214 C17,17.9552239 17.9163636,18.8507463 19.0414545,18.8507463 C20.1665455,18.8507463 21.0829091,17.9552239 21.0829091,16.8557214 C21.0778182,15.7562189 20.1665455,14.8606965 19.0414545,14.8606965 Z M33.9069091,21 C31.6516363,21 29.8138182,19.2039801 29.8138182,17 C29.8138182,14.7960199 31.6516364,13 33.9069091,13 C36.1621818,13 38,14.7960199 38,17 C37.9949091,19.2089552 36.1621818,21 33.9069091,21 Z" id="Shape"></path>
                        <path d="M33.9585454,15 C32.8334545,15 31.9170909,15.9401933 31.9170909,17.0945417 C31.917091,18.2488901 32.8334546,19.1890833 33.9585454,19.1890833 C35.0836363,19.1890833 36,18.2488901 36,17.0945417 C35.9949091,15.9401933 35.0785454,15 33.9585454,15 Z M19.0930909,35 C16.8378181,35 15,33.1143902 15,30.8004701 C15,28.48655 16.8378182,26.6009402 19.0930909,26.6009402 C21.3483636,26.6009402 23.1861818,28.48655 23.1861818,30.8004701 C23.1810909,33.1143902 21.3483636,35 19.0930909,35 Z" id="Shape"></path>
                        <path d="M19,29 C17.8977556,29 17,29.8977556 17,31 C17,32.1022444 17.8977556,33 19,33 C20.1022444,33 21,32.1022444 21,31 C20.9950125,29.8977556 20.1022444,29 19,29 Z" id="Shape"></path>
                    </g>
                </g>
            </g>
        </g>
    </g>
</svg>