<?xml version="1.0" encoding="UTF-8"?>
<svg width="110px" height="110px" viewBox="0 0 110 110" version="1.1" xmlns="http://www.w3.org/2000/svg" xmlns:xlink="http://www.w3.org/1999/xlink">
    <!-- Generator: Sketch 49.1 (51147) - http://www.bohemiancoding.com/sketch -->
    <title>pc12</title>
    <desc>Created with Sketch.</desc>
    <defs></defs>
    <g id="Page-1" stroke="none" stroke-width="1" fill="none" fill-rule="evenodd">
        <g id="PC端" transform="translate(-1386.000000, -7920.000000)">
            <g id="Group-50" transform="translate(175.000000, 7920.000000)">
                <g id="Group-33" transform="translate(1211.000000, 0.000000)">
                    <circle id="Oval-3-Copy-5" fill="#41A4DF" opacity="0.222979749" cx="55" cy="55" r="55"></circle>
                    <circle id="Oval-3-Copy-6" fill="#41A4DF" opacity="0.696428571" cx="55.5" cy="55.5" r="42.5"></circle>
                    <g id="呼出-(1)" transform="translate(32.000000, 34.000000)" fill="#FFFFFF" fill-rule="nonzero">
                        <path d="M38.9216087,36.0809688 C40.5536967,33.2332347 39.649886,31.0412288 36.7591855,28.85297 C33.3605582,26.2787682 30.0422282,24.5457722 27.6538522,27.3204394 C27.6538522,27.3204394 25.1198208,30.3461569 17.6633821,23.2642918 C8.99314785,14.9721398 12.6326668,12.0307303 12.6326668,12.0307303 C15.6484816,8.99002474 13.7306848,6.72120503 11.2022555,3.28518902 C8.67195887,-0.154573971 6.1173863,-1.24120936 2.44985667,1.71518825 C-4.6163002,7.41065643 5.3480267,20.7856391 10.3862115,25.9865008 C10.3862115,25.9865008 18.0480618,33.9376742 22.8696308,36.5849427 L25.4484793,38.0312919 C29.1496217,39.9366508 33.3045369,40.8078326 36.2288502,39.0392399 C36.2288502,39.0392399 37.6405877,38.3104448 38.9216087,36.0809688 Z M27.6239742,8.38113421 L31.1253072,11.8471264 C29.3699723,13.5838694 28.1748506,14.5993115 27.3588066,15.2344311 C22.3617041,19.1238364 18.3991288,17.5088714 18.3991288,17.5088714 C25.2225266,24.2572518 35.149506,15.8339541 35.149506,15.8339541 L38.3856714,19.0376549 L41,5.79569144 L27.6239742,8.38113421 Z" id="Shape"></path>
                    </g>
                </g>
            </g>
        </g>
    </g>
</svg>