<?xml version="1.0" encoding="UTF-8"?>
<svg width="110px" height="110px" viewBox="0 0 110 110" version="1.1" xmlns="http://www.w3.org/2000/svg" xmlns:xlink="http://www.w3.org/1999/xlink">
    <!-- Generator: Sketch 49.1 (51147) - http://www.bohemiancoding.com/sketch -->
    <title>pc13</title>
    <desc>Created with Sketch.</desc>
    <defs></defs>
    <g id="Page-1" stroke="none" stroke-width="1" fill="none" fill-rule="evenodd">
        <g id="PC端" transform="translate(-572.000000, -7920.000000)">
            <g id="Group-50" transform="translate(175.000000, 7920.000000)">
                <g id="Group-27" transform="translate(397.000000, 0.000000)">
                    <circle id="Oval-3-Copy" fill="#41A4DF" opacity="0.222979749" cx="55" cy="55" r="55"></circle>
                    <circle id="Oval-3-Copy-2" fill="#41A4DF" opacity="0.696428571" cx="55.5" cy="55.5" r="42.5"></circle>
                    <g id="话术管理" transform="translate(34.000000, 34.000000)" fill="#FFFFFF" fill-rule="nonzero">
                        <path d="M37.3238281,2 L21.9844531,2 C21.725,2 21.471875,2.02356862 21.2229687,2.05785026 C21.8367969,2.62992502 22.3599219,3.28127605 22.8028906,3.98619212 L37.3322656,3.98619212 C40.0617969,3.98619212 42.2766406,6.54660161 42.2766406,9.68979885 L42.2766406,30.3144863 C42.2766406,33.4641114 40.0533594,36.018093 37.3322656,36.0180931 L21.9865625,36.0180931 C20.6745313,36.0180931 19.4996094,35.4203071 18.6242187,34.4561362 C18.1150099,34.8142936 17.5707099,35.1180152 17,35.3624568 C18.2128906,36.9736936 19.9889844,38 21.9865625,38 L37.3322656,38 C41.0067969,38 44,34.5525533 44,30.3080585 L44,9.68979885 C43.9978906,5.45173197 41.0046875,2 37.3238281,2 Z" id="Shape"></path>
                        <path d="M37.1462749,11 L25.1523764,11 C25.7034361,11.5898211 26.1793513,12.2402975 26.5675979,12.943063 L37.1462749,12.943063 C37.6138407,12.943063 38,12.5059261 38,11.9746689 C38,11.4371369 37.6117534,11 37.1462749,11 Z M37.1462749,19.0399721 L27.9473346,19.0399721 C27.9473346,19.1278178 27.9285485,19.2156635 27.9285485,19.3056007 C28.0162171,19.8556821 28.0600514,20.4141297 28.0704881,20.9725773 L37.1462749,20.9725773 C37.6138407,20.9725773 38,20.537532 38,20.0041831 C38,19.4750174 37.6117534,19.0399721 37.1462749,19.0399721 Z M37.1462749,27.0653033 L26.5154143,27.0653033 C26.0964456,27.7735302 25.5870034,28.4239241 25,29 L37.1441875,29 C37.6117534,29 37.9979126,28.5691378 37.9979126,28.035789 C37.9979126,27.5024401 37.6117534,27.0653033 37.1462749,27.0653033 Z" id="Shape"></path>
                        <path d="M13.5,27 C9.36529068,26.9805786 6.01869335,23.7086259 6,19.6672849 L6,7.33062831 C6,3.30744258 9.38385995,-3.87183369e-08 13.5,0 C17.6161401,3.87183369e-08 21,3.30744262 21,7.33062831 L21,19.6672849 C20.9813067,23.7086259 17.6347093,26.9805785 13.5,27 Z M13.5,2.32460005 C12.140948,2.32237964 10.8369056,2.84908589 9.87590932,3.78838006 C8.91491307,4.72767423 8.37603744,6.00226761 8.37830914,7.33062831 L8.37830914,19.6672849 C8.37830914,22.4384419 10.6648164,24.6733132 13.5,24.6733132 C16.3351836,24.6733132 18.619556,22.4384419 18.619556,19.6672849 L18.619556,7.33062831 C18.6223959,6.0024598 18.0839961,4.7278601 17.1233384,3.78850532 C16.1626808,2.84915055 14.8588565,2.32237798 13.5,2.32460005 Z" id="Shape"></path>
                        <path d="M9.38676765,39.9978962 C8.75026466,39.9866966 8.23663114,39.4698305 8.22437781,38.8281908 C8.22437781,38.1970547 8.76070489,37.6563815 9.38676765,37.6563815 L12.3376101,37.6563815 L12.3376101,33.6907433 C9.00370996,33.4227065 5.89945166,31.8734396 3.66664092,29.3632539 C1.25212552,26.9312763 0,23.5967742 0,20.1718092 C0,19.5406732 0.536327084,19 1.16238984,19 C1.78636572,19 2.32477969,19.5406732 2.32477973,20.1718092 C2.44243582,26.3088774 7.41112681,31.2219607 13.5,31.2219607 C19.5888732,31.2219607 24.5575642,26.3088774 24.6752203,20.1718092 C24.6752203,19.5406732 25.2094605,19 25.8376102,19 C26.4657598,19 27,19.5406732 27,20.1718092 C27,23.5967742 25.7478745,26.9312763 23.335446,29.4558205 C21.0085794,31.9761571 17.9700881,33.4214586 14.6623899,33.7812062 L14.6623899,37.6584853 L17.6132323,37.6584853 C18.2372082,37.6584853 18.7756222,38.1991585 18.7756222,38.8302945 C18.7622987,39.4714741 18.2492808,39.9877207 17.6132323,40 L9.38676765,40 L9.38676765,39.9978962 Z" id="Shape"></path>
                    </g>
                </g>
            </g>
        </g>
    </g>
</svg>