<?xml version="1.0" encoding="UTF-8"?>
<svg width="110px" height="110px" viewBox="0 0 110 110" version="1.1" xmlns="http://www.w3.org/2000/svg" xmlns:xlink="http://www.w3.org/1999/xlink">
    <!-- Generator: Sketch 49.1 (51147) - http://www.bohemiancoding.com/sketch -->
    <title>pc14</title>
    <desc>Created with Sketch.</desc>
    <defs></defs>
    <g id="Page-1" stroke="none" stroke-width="1" fill="none" fill-rule="evenodd">
        <g id="PC端" transform="translate(-175.000000, -7920.000000)">
            <g id="Group-50" transform="translate(175.000000, 7920.000000)">
                <g id="Group-18">
                    <circle id="Oval-3" fill="#41A4DF" opacity="0.222979749" cx="55" cy="55" r="55"></circle>
                    <circle id="Oval-3" fill="#41A4DF" opacity="0.696428571" cx="55.5" cy="55.5" r="42.5"></circle>
                    <g id="活动管理" transform="translate(40.000000, 37.000000)" fill="#FFFFFF" fill-rule="nonzero">
                        <path d="M12.2000701,20.2046621 C10.4211778,19.546132 8.72117902,19.2100339 7.14680979,19.2058487 C5.62959038,19.1482807 4.13936304,19.5298182 2.7241969,20.3371369 L2.7241969,5.38781881 C2.78492899,4.96280634 2.93780059,4.50593504 3.04660186,4.34108893 C3.87760689,3.7518283 5.59101845,2.79307328 7.9377433,2.79307328 C8.55672748,2.79307328 10.2173213,3.2124485 11.1263033,3.4787646 C11.9338986,3.78898268 18.697488,6.34204694 22.5244431,6.34204694 C24.7793617,6.34204694 27.9929144,5.43214787 31.163813,3.90087307 L31.2759466,14.5620579 C31.2843608,15.3246205 31.8970135,15.9449713 32.6418772,15.9449713 L32.6512911,15.9449713 C33.3993206,15.9363446 34.0043089,15.3043777 33.9999769,14.5349822 L33.8819283,3.37849035 L33.8604347,3.23926803 C33.8221959,3.02368695 33.5816835,1.91819329 32.5971404,1.32850559 C32.2342474,1.11113086 31.8301999,1.00086336 31.3963278,1.00086336 C31.0879187,1.00086336 30.7665134,1.05834594 30.4426089,1.17117584 L30.3798774,1.19252896 L30.287488,1.23352695 C27.4125022,2.65957358 24.4378791,3.54538633 22.5242766,3.54538633 C19.0958706,3.54538633 12.1040984,0.871463452 12.0373681,0.844900187 L11.9270673,0.810649766 C11.7732792,0.7642708 9.20978496,0 7.9375767,0 C4.75109939,0 2.44161355,1.34712552 1.34976875,2.14923407 L1.29078616,2.1920257 L1.2124759,2.26377219 C0.274835648,3.16026153 0.0451533414,4.81128463 0.0084974769,5.13448539 L0,5.21272323 L0,35.6035061 C0,36.3735849 0.610986533,37 1.36209847,37 C2.11321037,37 2.72419694,36.3735849 2.7241969,35.6035061 L2.7241969,23.7410802 C2.9151406,23.567095 3.24321056,23.2896752 3.67874886,23.0028602 C4.77434256,22.2890681 5.9142565,21.9499806 7.06558376,21.9985803 L7.12090077,21.9987511 C8.38827716,21.9987511 9.78503204,22.278904 11.2725102,22.8315228 C11.4208467,22.8866718 11.5774188,22.9149098 11.7352071,22.9149707 L11.7352905,22.9149707 C12.307955,22.9149707 12.8232197,22.5447077 13.0174958,21.9936264 C13.2716709,21.2726597 12.9055288,20.4703804 12.2000701,20.2046621 Z" id="Shape"></path>
                        <path d="M33.1877315,22.6887102 L31.6586119,22.6887102 C31.5199892,22.2109856 31.3385733,21.7481846 31.1168057,21.3065353 L32.1964742,20.1706432 C32.5147053,19.8358403 32.5147053,19.2910616 32.1964742,18.9562586 L30.2427178,16.9007607 C30.092353,16.7424793 29.8825818,16.6517116 29.6673876,16.6517116 C29.449071,16.6517116 29.2447228,16.7400588 29.0919752,16.9007607 L28.0123067,18.0365664 C27.5924654,17.8033725 27.1525478,17.6125978 26.6984634,17.466805 L26.6984634,15.8579703 C26.6984634,15.3848548 26.332658,15 25.8830425,15 L23.1201921,15 C22.6704945,15 22.3046069,15.3849412 22.3046068,15.8579703 L22.3046068,17.466805 C21.8504686,17.6125898 21.4105179,17.8034248 20.9906814,18.0367393 L19.9110951,16.9042185 C19.7606481,16.7460235 19.550959,16.6552559 19.335847,16.6552559 C19.120735,16.6552558 18.9110459,16.7460235 18.7605168,16.904305 L16.8052814,18.9613589 C16.4927198,19.2953838 16.4927198,19.8387794 16.8066782,20.1741874 L17.8863468,21.310166 C17.6646342,21.7518318 17.483247,22.2146299 17.3446227,22.6923409 L15.8155031,22.6923409 C15.3658055,22.6923409 15,23.0771957 15,23.5502248 L15,26.4569502 C15,26.9301521 15.3658877,27.3150934 15.8155031,27.3150934 L17.3446227,27.3150934 C17.4832173,27.7925821 17.6645207,28.2551743 17.8861003,28.6966632 L16.8019126,29.8308264 C16.489351,30.1647648 16.489351,30.7081604 16.8033094,31.0435684 L18.7572301,33.0994122 C18.9078414,33.2575207 19.1175304,33.3482884 19.3324782,33.3482884 C19.5475902,33.3482884 19.7572793,33.2575207 19.9078084,33.0992393 L20.9875591,31.9633471 C21.4073973,32.1965069 21.8472818,32.3873082 22.3013202,32.533195 L22.3013202,34.1419433 C22.3013202,34.6150588 22.6671257,35 23.1168233,35 L25.8796737,35 C26.3293713,35 26.6952589,34.6150588 26.6952589,34.1419433 L26.6952589,32.533195 C27.1492965,32.3873833 27.5891604,32.1965791 28.0089378,31.9633471 L29.0887707,33.0993257 C29.2392177,33.2575207 29.4489068,33.3482884 29.6640188,33.3482884 C29.8822531,33.3482884 30.0866014,33.2599412 30.239349,33.0992393 L32.1931875,31.0435684 C32.3468563,30.883001 32.4330492,30.6644068 32.4325387,30.4365491 C32.4330584,30.2086895 32.346864,29.9900916 32.1931875,29.8295297 L31.113519,28.6935512 C31.3351968,28.2518983 31.5165827,27.7891323 31.6552431,27.3114626 L33.1843627,27.3114626 C33.6340603,27.3114626 33.9999479,26.9265214 33.9999479,26.4533195 L33.9999479,23.5492739 C34.0024038,23.3222987 33.9178787,23.1038454 33.7654446,22.9432054 C33.6132094,22.7801364 33.4049865,22.6884097 33.1877315,22.6887102 Z M29.4901543,25.0032849 L29.1246775,26.3658368 C29.0196686,26.763572 28.872837,27.1395228 28.6883731,27.4833161 L28.0261928,28.7154218 L26.8552372,29.4119986 C26.5203324,29.6100582 26.1636548,29.7642695 25.7931523,29.8711964 L24.4983717,30.248444 L23.2032625,29.8677386 C22.8249677,29.7569156 22.4675431,29.6023513 22.1410132,29.4084544 L20.9698933,28.7118776 L20.3078773,27.4798582 C20.1195881,27.1274693 19.9730084,26.7521563 19.8714086,26.3622925 L19.5127516,25.0038901 L19.8746953,23.6413382 C19.980115,23.2433437 20.1269466,22.8673064 20.311164,22.5237725 L20.9733443,21.2918395 L22.1442999,20.5951764 C22.4793697,20.397014 22.8362463,20.2427711 23.20696,20.1358921 L24.5014119,19.7551003 L25.7963568,20.1359786 C26.1742408,20.2464557 26.5315832,20.4009336 26.8585239,20.5950899 L28.0296438,21.2918395 L28.6916598,22.5235131 C28.8800666,22.876035 29.0266776,23.2515315 29.1282107,23.6415975 L29.4901543,25.0032849 Z" id="Shape"></path>
                        <path d="M23.9999558,21 C21.7943727,21 20,22.7944611 20,25.0000442 C20,27.2056273 21.7943727,29 23.9999558,29 C26.205539,29 28,27.2056273 28,25.0000442 C28,22.7944611 26.2055389,21 23.9999558,21 Z M23.9999558,26.1063266 C23.3877799,26.1063266 22.8897849,25.60842 22.8897849,24.9963324 C22.8897849,24.3841565 23.3877799,23.8861615 23.9999558,23.8861615 C24.6120433,23.8861615 25.1100383,24.3841565 25.1100383,24.9963324 C25.10995,25.6084199 24.6120434,26.1063266 23.9999558,26.1063266 Z" id="Shape"></path>
                    </g>
                </g>
            </g>
        </g>
    </g>
</svg>