<?xml version="1.0" encoding="UTF-8"?>
<svg width="110px" height="110px" viewBox="0 0 110 110" version="1.1" xmlns="http://www.w3.org/2000/svg" xmlns:xlink="http://www.w3.org/1999/xlink">
    <!-- Generator: Sketch 49.1 (51147) - http://www.bohemiancoding.com/sketch -->
    <title>pc15</title>
    <desc>Created with Sketch.</desc>
    <defs></defs>
    <g id="Page-1" stroke="none" stroke-width="1" fill="none" fill-rule="evenodd">
        <g id="PC端" transform="translate(-175.000000, -8340.000000)">
            <g id="Group-50" transform="translate(175.000000, 7920.000000)">
                <g id="Group-21" transform="translate(0.000000, 420.000000)">
                    <circle id="Oval-3-Copy-15" fill="#41A4DF" opacity="0.222979749" cx="55" cy="55" r="55"></circle>
                    <circle id="Oval-3-Copy-19" fill="#41A4DF" opacity="0.696428571" cx="55.5" cy="55.5" r="42.5"></circle>
                    <g id="记录" transform="translate(36.000000, 34.000000)" fill="#FFFFFF" fill-rule="nonzero">
                        <path d="M34.655,5.95079541e-16 L5.345,5.95079541e-16 C2.39645789,0.00824003548 0.00824003548,2.39645789 0,5.345 L0,34.655 C0.00824003548,37.6035421 2.39645789,39.99176 5.345,40 L34.655,40 C37.6035421,39.99176 39.99176,37.6035421 40,34.655 L40,5.345 C39.99176,2.39645789 37.6035421,0.00824003548 34.655,5.95079541e-16 Z M37.5,34.655 C37.4979341,36.2253936 36.2253936,37.4979341 34.655,37.5 L5.345,37.5 C3.77460639,37.4979341 2.50206586,36.2253936 2.5,34.655 L2.5,5.345 C2.50206586,3.77460639 3.77460639,2.50206586 5.345,2.5 L34.655,2.5 C36.2253936,2.50206586 37.4979341,3.77460639 37.5,5.345 L37.5,34.655 Z" id="Shape"></path>
                        <path d="M13.6363636,8.0725 L34,8.0725 L34,10.42875 L13.6363636,10.42875 L13.6363636,8.0725 Z M6,8 L11.0909091,8 L11.0909091,10.5 L6,10.5 L6,8 Z M13.6363636,15.5725 L34,15.5725 L34,17.92875 L13.6363636,17.92875 L13.6363636,15.5725 Z M6,15.5 L11.0909091,15.5 L11.0909091,18 L6,18 L6,15.5 Z M13.6363636,23.0725 L34,23.0725 L34,25.42875 L13.6363636,25.42875 L13.6363636,23.0725 Z M6,23 L11.0909091,23 L11.0909091,25.5 L6,25.5 L6,23 Z M13.6363636,30.5725 L34,30.5725 L34,32.92875 L13.6363636,32.92875 L13.6363636,30.5725 Z M6,30.5 L11.0909091,30.5 L11.0909091,33 L6,33 L6,30.5 Z" id="Shape"></path>
                    </g>
                </g>
            </g>
        </g>
    </g>
</svg>