<?xml version="1.0" encoding="UTF-8"?>
<svg width="110px" height="110px" viewBox="0 0 110 110" version="1.1" xmlns="http://www.w3.org/2000/svg" xmlns:xlink="http://www.w3.org/1999/xlink">
    <!-- Generator: Sketch 49.1 (51147) - http://www.bohemiancoding.com/sketch -->
    <title>pc16</title>
    <desc>Created with Sketch.</desc>
    <defs></defs>
    <g id="Page-1" stroke="none" stroke-width="1" fill="none" fill-rule="evenodd">
        <g id="PC端" transform="translate(-991.000000, -8340.000000)">
            <g id="Group-50" transform="translate(175.000000, 7920.000000)">
                <g id="Group-32" transform="translate(816.000000, 420.000000)">
                    <circle id="Oval-3-Copy-17" fill="#41A4DF" opacity="0.222979749" cx="55" cy="55" r="55"></circle>
                    <circle id="Oval-3-Copy-21" fill="#41A4DF" opacity="0.696428571" cx="55.5" cy="55.5" r="42.5"></circle>
                    <g id="录音2" transform="translate(39.000000, 30.000000)" fill="#FFFFFF" fill-rule="nonzero">
                        <path d="M23.7575753,21.1390078 C23.0719225,21.1390078 22.5151959,21.689247 22.5151959,22.3669101 L22.5151959,25.8768572 C22.5151959,30.8405943 18.0203611,34.8776127 12.4999773,34.8776127 C6.97959352,34.8776127 2.48475873,30.8348023 2.48475873,25.8768572 L2.48475873,22.2279023 C2.48475873,21.5502392 1.92803213,21 1.24237937,21 C0.556726603,21 0,21.5502392 0,22.2279023 L0,25.8768572 C0,31.9410728 5.18048755,36.8700579 11.6853984,37.2639134 L11.6853984,41.5441954 L6.50491084,41.5441954 C5.87786087,41.5441954 5.37387679,42.0944347 5.37387679,42.7778897 C5.37387679,43.4555528 5.87786087,44 6.50491084,44 L18.8994031,44 C19.5264531,44 20.0304372,43.4555528 20.0304372,42.7778897 C20.0304372,42.0944347 19.5205928,41.5441954 18.8994031,41.5441954 L14.1701571,41.5441954 L14.1701571,37.1828255 C20.2707086,36.4240745 24.9999546,31.6688492 24.9999546,25.8710652 L24.9999546,22.3611181 C25.0058149,21.683455 24.443228,21.1390078 23.7575753,21.1390078 Z" id="Shape"></path>
                        <path d="M12.041791,33.130987 C16.3880597,33.1251654 19.9104478,29.6962159 19.9164179,25.452236 L19.7432836,7.67875099 C19.7373134,3.44059275 16.2149254,0.00582164594 11.8686567,0 C7.52238806,0.00582164594 4.00597015,3.44059275 4,7.67875099 L4.17313433,25.4580577 C4.17313433,29.6903943 7.69552239,33.1251654 12.041791,33.130987 Z M38,33.1542736 L28.5253731,33.1542736 L28.5253731,37.5263297 L37.2716418,37.5263297 L38,33.1542736 Z M36.919403,39.6221223 L28.5253731,39.6221223 L28.5253731,44 L36.1850746,44 L36.919403,39.6221223 Z" id="Shape"></path>
                    </g>
                </g>
            </g>
        </g>
    </g>
</svg>