<?xml version="1.0" encoding="UTF-8"?>
<svg width="110px" height="110px" viewBox="0 0 110 110" version="1.1" xmlns="http://www.w3.org/2000/svg" xmlns:xlink="http://www.w3.org/1999/xlink">
    <!-- Generator: Sketch 49.1 (51147) - http://www.bohemiancoding.com/sketch -->
    <title>pc17</title>
    <desc>Created with Sketch.</desc>
    <defs></defs>
    <g id="Page-1" stroke="none" stroke-width="1" fill="none" fill-rule="evenodd">
        <g id="PC端" transform="translate(-1386.000000, -8130.000000)">
            <g id="Group-50" transform="translate(175.000000, 7920.000000)">
                <g id="Group-34" transform="translate(1211.000000, 210.000000)">
                    <circle id="Oval-3-Copy-10" fill="#41A4DF" opacity="0.222979749" cx="55" cy="55" r="55"></circle>
                    <circle id="Oval-3-Copy-14" fill="#41A4DF" opacity="0.696428571" cx="55.5" cy="55.5" r="42.5"></circle>
                    <g id="容错限流系统" transform="translate(31.000000, 31.000000)" fill="#FFFFFF" fill-rule="nonzero">
                        <path d="M24.5,3.44868037 C27.3451613,3.44868037 30.0993157,4.00430111 32.6954057,5.10117305 C35.2004888,6.15972631 37.4517106,7.67810366 39.3868035,9.61319648 C41.3218964,11.5482894 42.8402737,13.7995112 43.898827,16.3045943 C44.9956989,18.8958945 45.5513196,21.6548387 45.5513196,24.5 C45.5513196,27.3451613 44.9956989,30.0993157 43.898827,32.6954057 C42.8402737,35.2004888 41.3218964,37.4517106 39.3868035,39.3868035 C37.4517106,41.3218964 35.2004888,42.8402737 32.6954057,43.898827 C30.1041055,44.9956989 27.3451613,45.5513197 24.5,45.5513196 C21.6548387,45.5513196 18.9006843,44.9956989 16.3045943,43.898827 C13.7995112,42.8402737 11.5482894,41.3218964 9.61319648,39.3868035 C7.67810361,37.4517106 6.15972631,35.2004888 5.101173,32.6954057 C4.00430107,30.0993157 3.44868037,27.3451613 3.44868037,24.5 C3.44868037,21.6548388 4.00430111,18.9006843 5.101173,16.3045943 C6.15972626,13.7995112 7.67810361,11.5482894 9.61319648,9.61319648 C11.5482894,7.67810361 13.7995112,6.15972631 16.3045943,5.10117305 C18.9006843,4.00430111 21.6548387,3.44868037 24.5,3.44868037 Z M24.5,4.89952763e-16 C10.9687195,0 0,10.9687195 0,24.5 C0,38.0312806 10.9687194,49 24.5,49 C38.0312805,49 49,38.0312806 49,24.5 C49,10.9687195 38.0312805,0 24.5,4.89952763e-16 Z" id="Shape"></path>
                        <path d="M21.78271,36.9952866 C21.0049193,36.9952866 20.3770641,36.3636815 20.3770641,35.5812454 L20.3770641,22.8643017 L19.3977976,23.849417 C18.8495957,24.4008931 17.9593533,24.4008931 17.4111514,23.849417 C16.8629495,23.297941 16.8629496,22.4023816 17.4111514,21.8509055 L20.7893869,18.4477797 C21.1923387,18.0424212 21.7967664,17.919871 22.3215409,18.1414041 C22.8463153,18.3582238 23.1883558,18.8767055 23.1883558,19.4470355 L23.1883558,35.5812454 C23.1883558,36.3636815 22.5605006,36.9952866 21.78271,36.9952866 Z M27.2178739,37 C27.0398254,37 26.8570915,36.9670057 26.6837285,36.8915902 C26.158954,36.6747705 25.812228,36.1562887 25.812228,35.5859588 L25.812228,19.4140412 C25.812228,18.6316051 26.4400832,18 27.2178739,18 C27.9956646,18 28.6235197,18.6316051 28.6235197,19.4140412 L28.6235197,32.1592657 L29.5981008,31.1694369 C30.1463027,30.6132473 31.0365451,30.6132473 31.5847469,31.1647234 C32.1376343,31.7161995 32.1376343,32.6117589 31.5894324,33.1632349 L28.2111969,36.5852146 C27.9441242,36.8538824 27.5833418,37 27.2178739,37 Z" id="Shape"></path>
                        <path d="M36.4569186,29 L31.3594949,29 C30.5664562,29 29.9262924,28.3755825 29.9262924,27.6020503 C29.9262924,26.8285182 30.5664562,26.2041007 31.3594949,26.2041007 L35.1335949,26.2041007 L35.1335949,16.7958993 L12.8664051,16.7958993 L12.8664051,26.2041007 L16.1627709,26.2041007 C16.9558096,26.2041007 17.5959734,26.8285182 17.5959734,27.6020503 C17.5959734,28.3755825 16.9558096,29 16.1627709,29 L11.5430814,29 C10.6927146,29 10,28.3243243 10,27.4948742 L10,15.5051258 C10,14.6756757 10.6927146,14 11.5430814,14 L36.4569186,14 C37.3072854,14 38,14.6756757 38,15.5051258 L38,27.4948742 C38,28.3243243 37.3072854,29 36.4569186,29 Z" id="Shape"></path>
                    </g>
                </g>
            </g>
        </g>
    </g>
</svg>