<?xml version="1.0" encoding="UTF-8"?>
<svg width="110px" height="110px" viewBox="0 0 110 110" version="1.1" xmlns="http://www.w3.org/2000/svg" xmlns:xlink="http://www.w3.org/1999/xlink">
    <!-- Generator: Sketch 49.1 (51147) - http://www.bohemiancoding.com/sketch -->
    <title>pc18</title>
    <desc>Created with Sketch.</desc>
    <defs></defs>
    <g id="Page-1" stroke="none" stroke-width="1" fill="none" fill-rule="evenodd">
        <g id="PC端" transform="translate(-175.000000, -8130.000000)">
            <g id="Group-50" transform="translate(175.000000, 7920.000000)">
                <g id="Group-19" transform="translate(0.000000, 210.000000)">
                    <circle id="Oval-3-Copy-7" fill="#41A4DF" opacity="0.222979749" cx="55" cy="55" r="55"></circle>
                    <circle id="Oval-3-Copy-11" fill="#41A4DF" opacity="0.696428571" cx="55.5" cy="55.5" r="42.5"></circle>
                    <g id="语音" transform="translate(37.000000, 32.000000)" fill="#FFFFFF" fill-rule="nonzero">
                        <path d="M31.4589523,25.5754476 C31.4700776,30.7519509 28.6575219,35.5169414 24.1354356,37.9828415 C19.6133493,40.4487416 14.1114483,40.2176362 9.80922596,37.3810742 L8,39.202046 C10.401015,40.8961954 13.2084039,41.9134168 16.1313526,42.1483376 L16.1313526,45.4424552 L12.0656763,45.4424552 L12.0656763,48 L22.6161064,48 L22.6161064,45.4629156 L18.55043,45.4629156 L18.55043,42.1687979 C27.2345201,41.5876929 33.9870955,34.3352031 34,25.5754476 L34,24 L31.4589523,24 L31.4589523,25.5754476 Z" id="Shape"></path>
                        <path d="M17.7140563,34.7621768 C16.3793067,34.7543166 15.0646557,34.4344566 13.8739462,33.8278623 L11.9951826,35.7172539 C13.7211304,36.7664026 15.6973394,37.3260282 17.7140563,37.3367324 C23.9511334,37.3367324 29.0072834,32.2519801 29.0072834,25.9796203 L29.0072834,18.6089168 L26.44721,21.2042349 L26.44721,26.0003828 C26.4358266,30.8427446 22.5291927,34.7621903 17.7140563,34.7621768 Z M9.14606869,27.4537609 C9.05630825,26.9674064 9.00795962,26.4742388 9.00154845,25.9796203 L9.00154845,11.1551632 C9.22074587,6.68932402 12.7558392,3.10983184 17.1949542,2.85885258 C21.6340692,2.60787332 25.54584,5.76633374 26.2613982,10.1793235 L28.4292022,7.9992563 C26.8051789,2.67287631 21.5676215,-0.672232803 16.0832833,0.114197916 C10.5989451,0.900628635 6.4998045,5.58458044 6.42082928,11.1551632 L6.42082928,25.9796203 C6.43329348,27.1959128 6.64248475,28.4020608 7.04020188,29.550778 L9.14606869,27.4537609 Z M4.83110627,31.8138954 C3.96875842,29.9187816 3.53174182,27.8560197 3.55106957,25.7719948 L3.55106957,24.2978541 L0.908413138,24.2978541 L0.908413138,25.7719948 C0.92947473,28.5539432 1.63901056,31.2868383 2.97298846,33.7240495 L4.83110627,31.8138954 Z M0,40.181201 L34.1893674,5.79842654 L36,7.6172255 L1.81063257,42 L0,40.181201 Z" id="Shape"></path>
                    </g>
                </g>
            </g>
        </g>
    </g>
</svg>