<?xml version="1.0" encoding="UTF-8"?>
<svg width="110px" height="110px" viewBox="0 0 110 110" version="1.1" xmlns="http://www.w3.org/2000/svg" xmlns:xlink="http://www.w3.org/1999/xlink">
    <!-- Generator: Sketch 49.1 (51147) - http://www.bohemiancoding.com/sketch -->
    <title>pc19</title>
    <desc>Created with Sketch.</desc>
    <defs></defs>
    <g id="Page-1" stroke="none" stroke-width="1" fill="none" fill-rule="evenodd">
        <g id="PC端" transform="translate(-572.000000, -8340.000000)">
            <g id="Group-50" transform="translate(175.000000, 7920.000000)">
                <g id="Group-24" transform="translate(397.000000, 420.000000)">
                    <g id="Group-22">
                        <circle id="Oval-3-Copy-16" fill="#41A4DF" opacity="0.222979749" cx="55" cy="55" r="55"></circle>
                        <circle id="Oval-3-Copy-20" fill="#41A4DF" opacity="0.696428571" cx="55.5" cy="55.5" r="42.5"></circle>
                        <g id="智能报表" transform="translate(34.000000, 33.000000)" fill="#FFFFFF" fill-rule="nonzero">
                            <path d="M45.9577133,19.2344191 C44.1068626,8.12284795 34.4530833,-0.0182367325 23.1499754,0.000529435413 L23.0188965,0.000529435413 C13.0732504,-0.0668279279 4.23171084,6.29884909 1.17240426,15.7294319 C-1.97487083,25.2043868 1.35967215,35.6211887 9.4314321,41.5298662 C17.5031921,47.4385437 28.4753649,47.4945223 36.6074146,41.6685146 C37.3725732,41.0987694 37.8501901,40.224701 37.9152597,39.2750769 C37.9803294,38.3254529 37.6263747,37.3948017 36.9460352,36.7267002 L12.7073522,12.5836514 C12.3030587,12.1185703 11.671946,11.9174655 11.0718708,12.0625034 C10.4717955,12.2075412 10.0032709,12.6744276 9.85772417,13.2724048 C9.71217744,13.8703819 9.91398783,14.4992879 10.3807007,14.9021678 L34.5975373,39.0561017 C30.4325063,41.9921088 25.289333,43.209049 20.244392,42.4522384 C16.8124018,41.9646953 13.5752331,40.5660749 10.8722468,38.4029985 C4.48811433,33.3431162 1.85117146,24.9119657 4.21998992,17.1336038 C6.70891734,8.86972751 14.3606748,3.22518681 23.0188965,3.2660455 L23.1281289,3.2660455 C32.8201919,3.19357263 41.1194693,10.1701602 42.6807394,19.7024764 C42.6807394,19.7024764 25.0943132,19.7024764 24.9850808,19.7569017 C24.0801694,19.871123 23.4395134,20.6947284 23.5541355,21.5964757 C23.6687576,22.4982231 24.4952528,23.1366391 25.4001641,23.0224178 L42.6807394,23.0224178 C43.6488156,23.0348599 44.5728656,22.6200857 45.2050135,21.8893581 C45.8371613,21.1586305 46.1126989,20.1867486 45.9577133,19.2344191 Z" id="Shape"></path>
                        </g>
                    </g>
                </g>
            </g>
        </g>
    </g>
</svg>