<?xml version="1.0" encoding="UTF-8"?>
<svg width="137px" height="137px" viewBox="0 0 137 137" version="1.1" xmlns="http://www.w3.org/2000/svg" xmlns:xlink="http://www.w3.org/1999/xlink">
    <!-- Generator: Sketch 49.1 (51147) - http://www.bohemiancoding.com/sketch -->
    <title>pc2</title>
    <desc>Created with Sketch.</desc>
    <defs></defs>
    <g id="Page-1" stroke="none" stroke-width="1" fill="none" fill-rule="evenodd">
        <g id="Apple-TV-Copy-2" transform="translate(-278.000000, -470.000000)">
            <g id="Group-12" transform="translate(278.000000, 470.000000)">
                <circle id="Oval-2-Copy-6" fill="#40A3DE" cx="68.5" cy="68.5" r="68.5"></circle>
                <g id="人" transform="translate(29.621622, 29.621622)" fill="#FFFFFF" fill-rule="nonzero">
                    <path d="M38.8783784,42.6579296 C27.6036486,42.6579296 18.6616216,33.0448751 18.6616216,21.4291008 C18.6616216,9.81332653 27.6036486,0 38.8783784,0 C50.1531081,0 59.0951351,9.61305456 59.0951351,21.2288288 C59.0951351,32.8446031 49.9587162,42.6579296 38.8783784,42.6579296 Z M38.8783784,4.60625531 C30.1307432,4.60625531 22.9382432,12.0163182 22.9382432,21.4291008 C22.9382432,30.8418834 30.1307432,38.2519463 38.8783784,38.2519463 C47.6260135,38.2519463 54.8185135,30.8418834 54.8185135,21.4291008 C54.8185135,12.0163182 47.6260135,4.60625531 38.8783784,4.60625531 Z M77.7567568,78.1060683 L0,78.1060683 L0,70.8962774 C0,64.4875744 2.3327027,58.2791433 6.80371622,53.672888 C11.2747297,49.0666327 17.1064865,46.4630971 23.327027,46.4630971 L54.4297297,46.4630971 C60.6502703,46.4630971 66.482027,49.0666327 70.9530405,53.672888 C75.4240541,58.2791433 77.7567568,64.4875744 77.7567568,70.8962774 L77.7567568,78.1060683 Z M4.27662162,73.700085 L73.4801351,73.700085 L73.4801351,71.0965494 C73.4801351,60.081591 64.9268919,51.2696243 54.4297297,51.2696243 L23.327027,51.2696243 C12.8298649,51.2696243 4.27662162,60.281863 4.27662162,71.0965494 L4.27662162,73.700085 Z" id="Shape"></path>
                </g>
            </g>
        </g>
    </g>
</svg>