<?xml version="1.0" encoding="UTF-8"?>
<svg width="110px" height="110px" viewBox="0 0 110 110" version="1.1" xmlns="http://www.w3.org/2000/svg" xmlns:xlink="http://www.w3.org/1999/xlink">
    <!-- Generator: Sketch 49.1 (51147) - http://www.bohemiancoding.com/sketch -->
    <title>pc20</title>
    <desc>Created with Sketch.</desc>
    <defs></defs>
    <g id="Page-1" stroke="none" stroke-width="1" fill="none" fill-rule="evenodd">
        <g id="PC端" transform="translate(-1386.000000, -8340.000000)">
            <g id="Group-50" transform="translate(175.000000, 7920.000000)">
                <g id="Group-35" transform="translate(1211.000000, 420.000000)">
                    <circle id="Oval-3-Copy-18" fill="#41A4DF" opacity="0.222979749" cx="55" cy="55" r="55"></circle>
                    <circle id="Oval-3-Copy-22" fill="#41A4DF" opacity="0.696428571" cx="55.5" cy="55.5" r="42.5"></circle>
                    <g id="转接人工" transform="translate(36.000000, 33.000000)" fill="#FFFFFF" fill-rule="nonzero">
                        <path d="M5.97524776,17 C6.66380849,17 7.22169347,16.445 7.22169347,15.76 L7.22169347,11.83 C7.22169347,11.46 7.05583577,11.125 6.79448425,10.895 C7.30210932,8.76 8.3977753,6.8 9.99604036,5.21 C12.2728142,2.945 15.2984606,1.7 18.5201207,1.7 C21.7417807,1.7 24.7674272,2.945 27.044201,5.21 C28.63744,6.795 29.723054,8.74 30.2407311,10.86 C29.9542496,11.085 29.7733139,11.435 29.7733139,11.825 L29.7733139,15.755 C29.7733139,16.44 30.3311989,16.995 31.0197596,16.995 L31.7535543,16.995 C32.442115,16.995 33,16.44 33,15.755 L33,11.825 C33,11.2 32.5376089,10.685 31.93449,10.6 C31.361527,8.12 30.1050293,5.845 28.2554647,4.005 C25.6570275,1.42 22.1991459,0 18.5251467,0 C14.8511474,0 11.3932658,1.425 8.79482857,4.01 C6.94526397,5.85 5.68876629,8.125 5.11580334,10.6 C4.4875545,10.665 4.0000334,11.19 4.0000334,11.835 L4.0000334,15.765 C3.99500741,16.445 4.55791837,17 5.24145311,17 L5.97524776,17 Z" id="Shape"></path>
                        <path d="M22.5872933,23.8595642 C26.2193725,22.2566586 28.7627913,18.6004843 28.7627913,14.3631961 C28.7627913,8.64891041 24.1383934,4 18.4542377,4 C12.770082,4 8.14568416,8.64891041 8.14568416,14.3631961 C8.14568416,18.6150121 10.7035542,22.2760291 14.3549017,23.874092 C6.13214425,25.7675545 0,33.1622276 0,42 L37,42 C37,33.1428571 30.8389533,25.7288136 22.5872933,23.8595642 Z M9.77867465,14.3631961 C9.77867465,9.55447942 13.6708762,5.6464891 18.4494206,5.6464891 C23.2327822,5.6464891 27.1201666,9.55932203 27.1201666,14.3631961 C27.1201666,19.1670702 23.2279651,23.0799031 18.4494206,23.0799031 C13.6708762,23.0799031 9.77867465,19.1719128 9.77867465,14.3631961 Z" id="Shape"></path>
                    </g>
                </g>
            </g>
        </g>
    </g>
</svg>