<?xml version="1.0" encoding="UTF-8"?>
<svg width="110px" height="110px" viewBox="0 0 110 110" version="1.1" xmlns="http://www.w3.org/2000/svg" xmlns:xlink="http://www.w3.org/1999/xlink">
    <!-- Generator: Sketch 49.1 (51147) - http://www.bohemiancoding.com/sketch -->
    <title>pc21</title>
    <desc>Created with Sketch.</desc>
    <defs></defs>
    <g id="Page-1" stroke="none" stroke-width="1" fill="none" fill-rule="evenodd">
        <g id="PC端" transform="translate(-991.000000, -8130.000000)">
            <g id="Group-50" transform="translate(175.000000, 7920.000000)">
                <g id="Group-31" transform="translate(816.000000, 210.000000)">
                    <circle id="Oval-3-Copy-9" fill="#41A4DF" opacity="0.222979749" cx="55" cy="55" r="55"></circle>
                    <circle id="Oval-3-Copy-13" fill="#41A4DF" opacity="0.696428571" cx="55.5" cy="55.5" r="42.5"></circle>
                    <path d="M73.6603333,50.3074317 C71.7583,42.0356977 64.3494,35.8666554 55.5,35.8666554 C46.6506,35.8666554 39.2417,42.0356977 37.3396667,50.3074317 C38.6160123,50.014996 39.9560591,50.3200614 40.9800388,51.1361728 C42.0040185,51.9522843 42.6003377,53.1905016 42.6,54.4999152 L42.6,58.7998982 C42.6,61.1747133 40.6748244,63.0998813 38.3,63.0998813 C35.9251756,63.0998813 34,61.1747133 34,58.7998982 L34,54.4999152 C34,42.6262287 43.6262667,33 55.5,33 C67.3737333,33 77,42.6262287 77,54.4999152 L77,58.7998982 C77,60.706224 75.7616,62.320151 74.0444667,62.8848821 C73.216,68.5680263 66.6556333,73.1790415 58.1172667,74.3042037 C57.5869469,75.4891394 56.3265144,76.1697825 55.0448342,75.9633408 C53.7631541,75.756899 52.7801904,74.7149093 52.6487602,73.4233848 C52.51733,72.1318603 53.2702441,70.9132227 54.4840649,70.4528318 C55.6978858,69.9924408 57.0695899,70.4052303 57.8277333,71.4590483 C64.8940667,70.5402853 70.3221,67.0830989 71.1548666,62.8146491 C69.4946334,62.1749407 68.3995934,60.5791057 68.4,58.7998982 L68.4,54.4999152 C68.3996623,53.1905016 68.9959815,51.9522843 70.0199612,51.1361728 C71.0439409,50.3200614 72.3839877,50.014996 73.6603333,50.3074317 Z M49.05,55.9332429 C47.8625878,55.9332429 46.9,54.9706589 46.9,53.7832514 C46.9,52.5958438 47.8625878,51.6332598 49.05,51.6332598 C50.2374122,51.6332598 51.2,52.5958438 51.2,53.7832514 C51.2,54.9706589 50.2374122,55.9332429 49.05,55.9332429 Z M61.95,55.9332429 C60.7625878,55.9332429 59.8,54.9706589 59.8,53.7832514 C59.8,52.5958438 60.7625878,51.6332598 61.95,51.6332598 C63.1374122,51.6332598 64.1,52.5958438 64.1,53.7832514 C64.1,54.9706589 63.1374122,55.9332429 61.95,55.9332429 Z M36.8666667,54.4999152 L36.8666667,58.7998982 C36.866579,59.3120353 37.1397516,59.785307 37.5832625,60.0414009 C38.0267734,60.2974947 38.5732266,60.2974947 39.0167375,60.0414009 C39.4602484,59.785307 39.733421,59.3120353 39.7333333,58.7998982 L39.7333333,54.4999152 C39.733421,53.9877781 39.4602484,53.5145064 39.0167375,53.2584126 C38.5732266,53.0023187 38.0267734,53.0023187 37.5832625,53.2584126 C37.1397516,53.5145064 36.866579,53.9877781 36.8666667,54.4999152 Z M71.2666667,54.4999152 L71.2666667,58.7998982 C71.266579,59.3120353 71.5397516,59.785307 71.9832625,60.0414009 C72.4267734,60.2974947 72.9732266,60.2974947 73.4167375,60.0414009 C73.8602484,59.785307 74.133421,59.3120353 74.1333333,58.7998982 L74.1333333,54.4999152 C74.133421,53.9877781 73.8602484,53.5145064 73.4167375,53.2584126 C72.9732266,53.0023187 72.4267734,53.0023187 71.9832625,53.2584126 C71.5397516,53.5145064 71.266579,53.9877781 71.2666667,54.4999152 Z" id="Shape" fill="#FFFFFF" fill-rule="nonzero"></path>
                </g>
                <g id="22-问题反馈-回复" transform="translate(850.000000, 243.000000)"></g>
            </g>
        </g>
    </g>
</svg>