<?xml version="1.0" encoding="UTF-8"?>
<svg width="137px" height="137px" viewBox="0 0 137 137" version="1.1" xmlns="http://www.w3.org/2000/svg" xmlns:xlink="http://www.w3.org/1999/xlink">
    <!-- Generator: Sketch 49.1 (51147) - http://www.bohemiancoding.com/sketch -->
    <title>pc3</title>
    <desc>Created with Sketch.</desc>
    <defs></defs>
    <g id="Page-1" stroke="none" stroke-width="1" fill="none" fill-rule="evenodd">
        <g id="Apple-TV-Copy-2" transform="translate(-466.000000, -662.000000)" fill="#40A3DE" fill-rule="nonzero">
            <g id="Group-11" transform="translate(466.000000, 662.000000)">
                <g id="培训">
                    <path d="M44.9769475,92.5675676 L36.0196741,92.5675676 C32.394111,92.5675676 29.6216216,95.3253097 29.6216216,98.9315878 L29.6216216,107.841216 L51.375,107.841216 L51.375,98.9315878 C51.375,97.2345158 50.7351948,95.7495777 49.4555843,94.4767736 C48.3892422,93.2039696 46.6830949,92.5675676 44.9769475,92.5675676 Z" id="Shape"></path>
                    <path d="M73.6728935,92.5675676 L64.71562,92.5675676 C61.090057,92.5675676 58.3175676,95.3253097 58.3175676,98.9315878 L58.3175676,107.841216 L79.8576775,107.841216 L80.0709459,107.841216 L80.0709459,98.9315878 C80.0709459,95.3253097 77.2984565,92.5675676 73.6728935,92.5675676 Z" id="Shape"></path>
                    <path d="M66.6486486,80.6680421 L66.6486486,62.7798896 C66.6486486,60.1936507 64.9397089,58.0384516 62.3762994,57.6074118 L61.0945946,57.3918919 L55.5405405,68.5989272 L49.9864865,57.3918919 L48.7047817,57.6074118 C46.1413721,58.2539715 44.4324324,60.4091706 44.4324324,62.7798896 L44.4324324,80.6680421 C44.4324324,82.1766815 45.7141372,83.4698009 47.2094595,83.4698009 L48.7047817,83.4698009 L48.7047817,85.625 L62.3762994,85.625 L62.3762994,83.4698009 L63.8716216,83.4698009 C65.3669439,83.4698009 66.6486486,82.1766815 66.6486486,80.6680421 Z" id="Shape"></path>
                    <path d="M68.5,0 C30.6682445,0 0,30.6682445 0,68.5 C0,106.331755 30.6682445,137 68.5,137 C106.331755,137 137,106.331755 137,68.5 C137,30.6682445 106.331755,0 68.5,0 Z M26.8416928,39.2962382 C26.8416928,31.7805643 32.854232,25.7680251 40.369906,25.7680251 L97.9184953,25.7680251 C105.434169,25.7680251 111.446708,31.7805643 111.446708,39.2962382 L111.446708,72.1504702 C111.446708,79.6661442 105.434169,85.6786834 97.9184953,85.6786834 L73.653605,85.6786834 C72.7946708,85.6786834 72.1504702,85.0344828 72.1504702,84.1755486 C72.1504702,83.3166144 72.7946708,82.6724138 73.653605,82.6724138 L97.7037618,82.6724138 C103.501567,82.6724138 108.225705,77.9482759 108.225705,72.1504702 L108.225705,39.2962382 C108.225705,33.4984326 103.501567,28.7742947 97.7037618,28.7742947 L40.1551724,28.7742947 C34.3573668,28.7742947 29.6332288,33.4984326 29.6332288,39.2962382 L29.6332288,71.7210031 C29.6332288,74.9420063 30.2774295,77.5188088 31.5658307,79.4514107 C32.854232,81.3840125 35.0015674,82.4576803 37.5783699,82.4576803 L37.7931034,82.4576803 C38.6520376,82.4576803 39.2962382,83.1018809 39.2962382,83.960815 C39.2962382,84.8197492 38.6520376,85.4639498 37.7931034,85.4639498 C30.9216301,85.4639498 26.8416928,80.3103448 26.8416928,72.1504702 L26.8416928,39.2962382 Z M45.9529781,88.2554859 L45.9529781,85.8934169 C43.5909091,85.2492163 41.6583072,83.1018809 41.6583072,80.3103448 L41.6583072,62.4874608 C41.6583072,60.5548589 42.3025078,58.8369906 43.5909091,57.3338558 C44.6645768,55.830721 46.3824451,54.9717868 48.315047,54.5423197 L51.7507837,53.8981191 L55.830721,62.0579937 L59.9106583,53.6833856 C58.6222571,54.5423197 57.3338558,55.1865204 56.0454545,55.1865204 C54.5423197,55.1865204 53.2539185,54.7570533 52.1802508,53.6833856 C51.1065831,52.8244514 50.4623824,51.5360502 49.8181818,50.0329154 C48.9592476,49.3887147 48.1003135,48.1003135 47.8855799,47.0266458 C47.6708464,46.1677116 47.8855799,44.8793103 48.5297806,44.0203762 C48.7445141,44.0203762 48.7445141,43.8056426 48.9592476,43.8056426 C49.6034483,40.1551724 52.1802508,37.7931034 56.0454545,37.7931034 C59.6959248,37.7931034 62.2727273,40.1551724 62.9169279,43.8056426 C63.1316614,43.8056426 63.346395,43.8056426 63.346395,44.0203762 C64.2053292,44.8793103 64.2053292,46.1677116 63.9905956,47.0266458 C63.7758621,48.1003135 63.1316614,49.3887147 62.2727273,50.0329154 C61.6285266,51.5360502 60.984326,52.8244514 59.9106583,53.6833856 L63.346395,54.3275862 C65.2789969,54.7570533 66.7821317,55.6159875 68.0705329,57.1191223 C69.3589342,58.6222571 70.0031348,60.3401254 70.0031348,62.2727273 L70.0031348,76.015674 L82.6724138,60.5548589 C83.1018809,60.1253918 83.960815,60.1253918 84.6050157,60.5548589 C85.2492163,60.984326 85.4639498,61.8432602 84.8197492,62.4874608 L84.6050157,62.7021944 C84.6050157,62.9169279 84.3902821,63.1316614 84.1755486,63.346395 C83.7460815,63.7758621 83.1018809,64.6347962 82.4576803,65.4937304 C81.3840125,66.9968652 79.4514107,69.1442006 77.3040752,71.9357367 C74.0830721,75.8009404 71.0768025,79.6661442 70.0031348,80.9545455 C69.7884013,83.531348 68.0705329,85.4639498 65.7084639,86.1081505 L65.7084639,88.2554859 L45.9529781,88.2554859 Z M54.3275862,111.017241 L26.6269592,111.017241 L26.6269592,99.2068966 C26.6269592,94.0532915 30.9216301,89.7586207 36.0752351,89.7586207 L45.0940439,89.7586207 C47.6708464,89.7586207 50.0329154,90.8322884 51.5360502,92.5501567 C53.2539185,94.2680251 54.3275862,96.630094 54.3275862,99.2068966 L54.3275862,111.017241 Z M82.8871473,111.017241 L55.1865204,111.017241 L55.1865204,99.2068966 C55.1865204,94.0532915 59.4811912,89.7586207 64.6347962,89.7586207 L73.653605,89.7586207 C78.80721,89.7586207 83.1018809,94.0532915 82.8871473,99.2068966 L82.8871473,111.017241 Z M111.661442,111.017241 L83.960815,111.017241 L83.960815,99.2068966 C83.960815,94.0532915 88.2554859,89.7586207 93.4090909,89.7586207 L102.4279,89.7586207 C107.581505,89.7586207 111.661442,94.0532915 111.661442,99.2068966 L111.661442,111.017241 Z" id="Shape"></path>
                    <path d="M60.6317568,46.3009259 L59.7865746,46.3009259 L59.7865746,45.0152653 C59.5752791,43.3010511 58.9413925,40.7297297 55.7719595,40.7297297 C52.813822,40.7297297 51.9686398,43.0867743 51.7573443,45.0152653 L51.7573443,46.3009259 L50.9121622,46.3009259 C50.9121622,46.3009259 50.9121622,46.5152027 50.9121622,46.7294795 C50.9121622,47.3723098 51.3347532,47.8008634 51.5460488,48.0151401 L52.3912309,48.0151401 L52.6025264,48.6579705 C53.236413,50.8007382 54.5041863,52.3006757 55.983255,52.3006757 C57.2510282,52.3006757 58.7300969,51.015015 59.3639835,48.6579705 L59.5752791,48.0151401 L59.9978702,47.8008634 C60.2091657,47.8008634 60.6317568,47.158033 60.6317568,46.7294795 C60.6317568,46.5152027 60.6317568,46.5152027 60.6317568,46.3009259 Z" id="Shape"></path>
                    <path d="M102.368839,92.5675676 L93.411566,92.5675676 C89.7860029,92.5675676 87.0135135,95.3253097 87.0135135,98.9315878 L87.0135135,107.841216 L108.553623,107.841216 L108.766892,107.841216 L108.766892,98.9315878 C108.766892,95.3253097 105.994402,92.5675676 102.368839,92.5675676 Z" id="Shape"></path>
                </g>
            </g>
        </g>
    </g>
</svg>