<?xml version="1.0" encoding="UTF-8"?>
<svg width="137px" height="137px" viewBox="0 0 137 137" version="1.1" xmlns="http://www.w3.org/2000/svg" xmlns:xlink="http://www.w3.org/1999/xlink">
    <!-- Generator: Sketch 49.1 (51147) - http://www.bohemiancoding.com/sketch -->
    <title>pc4</title>
    <desc>Created with Sketch.</desc>
    <defs></defs>
    <g id="Page-1" stroke="none" stroke-width="1" fill="none" fill-rule="evenodd">
        <g id="Apple-TV-Copy-2" transform="translate(-918.000000, -217.000000)">
            <g id="Group-10" transform="translate(918.000000, 217.000000)">
                <circle id="Oval-2-Copy-7" fill="#40A3DE" cx="68.5" cy="68.5" r="68.5"></circle>
                <g id="定制" transform="translate(27.770270, 25.918919)" fill="#FFFFFF" fill-rule="nonzero" stroke="#FFFFFF">
                    <path d="M15.7565863,77.5711396 C16.6007957,78.4140114 17.7485876,78.8853176 18.9439333,78.8799277 C20.1392791,78.8853176 21.287071,78.4140114 22.1312803,77.5711396 L28.3214437,71.4059122 C28.7314758,71.0343618 28.9030936,70.468312 28.7680589,69.9328342 C28.6330242,69.3973565 28.2132253,68.9792487 27.6755817,68.8447579 C27.1379382,68.7102672 26.569599,68.8811937 26.1965457,69.289574 L20.0063823,75.4548014 C19.4108452,76.017748 18.4770214,76.017748 17.8814843,75.4548014 L4.56732079,62.1942716 C3.98146935,61.6094805 3.98146935,60.6627245 4.56732079,60.0779334 L8.85625965,55.8062717 L15.1638516,62.0884547 C15.5369048,62.496835 16.1052441,62.6677615 16.6428876,62.5332707 C17.1805312,62.39878 17.6003301,61.9806722 17.7353648,61.4451944 C17.8703995,60.9097167 17.6987817,60.3436669 17.2887496,59.9721165 L10.9811577,53.6899335 L16.1200557,48.5717366 L26.3866682,58.7969918 C26.7597214,59.2053721 27.3280606,59.3762986 27.8657042,59.2418078 C28.4033478,59.1073171 28.8231466,58.6892093 28.9581813,58.1537316 C29.0932161,57.6182538 28.9215983,57.052204 28.5115662,56.6806536 L18.2449537,46.4553984 L23.8200151,40.9027952 L30.1276071,47.1905474 C30.5006603,47.5989278 31.0689995,47.7698542 31.6066431,47.6353635 C32.1442866,47.5008727 32.5640855,47.082765 32.6991202,46.5472872 C32.8341549,46.0118094 32.6625371,45.4457596 32.2525051,45.0742092 L25.9449131,38.7920263 L31.6262193,33.1336062 L41.8928318,43.3588614 C42.1738851,43.639395 42.555746,43.7965855 42.9536491,43.7955399 C43.3515522,43.7944942 43.7325749,43.6352989 44.012138,43.3532921 C44.5979894,42.768501 44.5979894,41.821745 44.012138,41.2369539 L33.7455255,31.0172679 L39.6449134,25.1416447 L45.9525054,31.4238277 C46.3255586,31.832208 46.8938978,32.0031344 47.4315414,31.8686437 C47.9691849,31.7341529 48.3889838,31.3160452 48.5240185,30.7805674 C48.6590532,30.2450896 48.4874354,29.6790399 48.0774034,29.3074894 L41.7698114,23.0253065 L47.1267911,17.6899064 L57.3934036,27.920731 C57.7664568,28.3291113 58.334796,28.5000377 58.8724396,28.365547 C59.4100831,28.2310562 59.829882,27.8129485 59.9649167,27.2774707 C60.0999514,26.7419929 59.9283336,26.1759432 59.5183016,25.8043927 L49.2516891,15.5791375 L55.0392402,9.81490051 L61.3468322,16.0970835 C61.7198854,16.5054638 62.2882246,16.6763902 62.8258682,16.5418995 C63.3635118,16.4074087 63.7833106,15.989301 63.9183454,15.4538232 C64.0533801,14.9183454 63.8817623,14.3522957 63.4717302,13.9807452 L57.1641382,7.69856228 L61.458669,3.42133134 C62.0458253,2.83783991 62.9964106,2.83783991 63.583567,3.42133134 L76.8977305,16.6818611 C77.4835819,17.2666522 77.4835819,18.2134082 76.8977305,18.7981993 L35.7641786,59.766052 C35.3541465,60.1376024 35.1825287,60.7036522 35.3175635,61.2391299 C35.4525982,61.7746077 35.872397,62.1927154 36.4100406,62.3272062 C36.9476842,62.461697 37.5160234,62.2907705 37.8890766,61.8823902 L79.0226285,20.9145376 C80.7795403,19.1620736 80.7795403,16.3235562 79.0226285,14.5710922 L65.708465,1.31056243 C63.9457273,-0.436854142 61.0965087,-0.436854142 59.3337709,1.31056243 L2.44242278,57.9671645 C0.685510958,59.7196284 0.685510958,62.5581459 2.44242278,64.3106098 L15.7565863,77.5711396 Z M80.0794857,79.4814133 L1.37997378,79.4814133 C0.599358961,79.5485138 0,80.1991975 0,80.979558 C0,81.7599185 0.599358961,82.4106022 1.37997378,82.4777027 L80.0794857,82.4777027 C80.8601005,82.4106022 81.4594595,81.7599185 81.4594595,80.979558 C81.4594595,80.1991975 80.8601005,79.5485138 80.0794857,79.4814133 Z" id="Shape"></path>
                </g>
            </g>
        </g>
    </g>
</svg>