<?xml version="1.0" encoding="UTF-8"?>
<svg width="137px" height="137px" viewBox="0 0 137 137" version="1.1" xmlns="http://www.w3.org/2000/svg" xmlns:xlink="http://www.w3.org/1999/xlink">
    <!-- Generator: Sketch 49.1 (51147) - http://www.bohemiancoding.com/sketch -->
    <title>pc5</title>
    <desc>Created with Sketch.</desc>
    <defs></defs>
    <g id="Page-1" stroke="none" stroke-width="1" fill="none" fill-rule="evenodd">
        <g id="Apple-TV-Copy-2" transform="translate(-1352.000000, -273.000000)">
            <g id="Group-9" transform="translate(1352.000000, 273.000000)">
                <circle id="Oval-2-Copy-3" fill="#40A3DE" cx="68.5" cy="68.5" r="68.5"></circle>
                <g id="在线扩容" transform="translate(33.324324, 33.324324)" fill="#FFFFFF" fill-rule="nonzero">
                    <path d="M68.8711971,42.191461 C67.0302833,42.1947803 65.5396885,43.6864526 65.5396915,45.5253748 L65.5396915,60.8108277 L45.122924,40.416182 C44.2802911,39.5744622 43.052127,39.2457331 41.9010692,39.553824 C40.7500113,39.8619148 39.8509328,40.7600192 39.5425078,41.9098298 C39.2340828,43.0596405 39.5631684,44.2864739 40.4058012,45.1281937 L60.8165443,65.5348752 L45.5325846,65.5348752 C43.6895073,65.535143 42.19554,67.0277086 42.19554,68.868789 C42.19554,70.7098693 43.6895073,72.2024349 45.5325846,72.2027027 L68.8711971,72.2027027 C70.7121109,72.1993833 72.2027057,70.7077111 72.2027027,68.868789 L72.2027027,45.5253748 C72.2027057,43.6864526 70.7121109,42.1947804 68.8711971,42.191461 Z M11.2054257,6.56552333 L26.254433,6.56552333 C28.0694187,6.56552331 29.5407553,5.09578085 29.5407553,3.28276167 C29.5407553,1.46974248 28.0694187,2.70160913e-08 26.254433,0 L3.28331028,0 C1.46995908,0 3.54583929e-08,1.46836633 3.54583929e-08,3.27975273 L3.54583929e-08,26.2560753 C-0.000171988112,27.4279327 0.625585778,28.510847 1.64151614,29.0968253 C2.6574465,29.6828036 3.90917398,29.6828036 4.92510434,29.0968253 C5.9410347,28.510847 6.56679247,27.4279327 6.56662045,26.2560753 L6.56662045,11.2053203 L26.6520448,31.2930533 C27.9346791,32.5726361 30.0128916,32.5712889 31.2938623,31.2900444 C32.574833,30.0087998 32.5734843,27.9328391 31.29085,26.6532564 L11.2054257,6.55950539 L11.2054257,6.56552333 Z" id="Shape"></path>
                </g>
            </g>
        </g>
    </g>
</svg>