<?xml version="1.0" encoding="UTF-8"?>
<svg width="137px" height="137px" viewBox="0 0 137 137" version="1.1" xmlns="http://www.w3.org/2000/svg" xmlns:xlink="http://www.w3.org/1999/xlink">
    <!-- Generator: Sketch 49.1 (51147) - http://www.bohemiancoding.com/sketch -->
    <title>pc6</title>
    <desc>Created with Sketch.</desc>
    <defs></defs>
    <g id="Page-1" stroke="none" stroke-width="1" fill="none" fill-rule="evenodd">
        <g id="Apple-TV-Copy-2" transform="translate(-1622.000000, -488.000000)">
            <g id="Group-8" transform="translate(1622.000000, 488.000000)">
                <circle id="Oval-2-Copy-2" fill="#40A3DE" cx="68.5" cy="68.5" r="68.5"></circle>
                <g id="数据准确度高／更新及时" transform="translate(18.471910, 18.471910)" fill="#FFFFFF" fill-rule="nonzero">
                    <path d="M91.1255243,65.0549888 L99.6482584,64.772779 L99.490221,65.3146217 C93.0612286,86.8403685 73.2630528,101.59204 50.7977528,101.595506 C22.7429286,101.595506 3.91644686e-15,78.852577 0,50.7977528 C0,28.1814644 14.9288951,8.46629213 36.2808839,2.10528464 L36.8227266,1.94724719 L36.8227266,10.3683858 C19.591,16.4641161 8.03168914,32.5331386 8.03168914,50.7977528 C8.0203639,71.6350463 23.0284456,89.4473484 43.5656309,92.9711176 C64.1028162,96.4948868 84.1901674,84.7042572 91.1255243,65.0549888 Z M58.4230599,43.1893783 L92.8865131,43.1893783 C89.7013036,25.6409148 75.9704793,11.905593 58.4230599,8.7146367 L58.4230599,43.1893783 Z M50.3744382,0 L50.7977528,0 C64.2701545,-4.69973623e-15 77.1907617,5.35189073 86.7171883,14.8783173 C96.2436149,24.4047439 101.595506,37.3253511 101.595506,50.7977528 L101.595506,51.2210674 L50.3744382,51.2210674 L50.3744382,0 Z" id="Shape"></path>
                </g>
            </g>
        </g>
    </g>
</svg>