<?xml version="1.0" encoding="UTF-8"?>
<svg width="137px" height="137px" viewBox="0 0 137 137" version="1.1" xmlns="http://www.w3.org/2000/svg" xmlns:xlink="http://www.w3.org/1999/xlink">
    <!-- Generator: Sketch 49.1 (51147) - http://www.bohemiancoding.com/sketch -->
    <title>pc7</title>
    <desc>Created with Sketch.</desc>
    <defs></defs>
    <g id="Page-1" stroke="none" stroke-width="1" fill="none" fill-rule="evenodd">
        <g id="Apple-TV-Copy-2" transform="translate(-1318.000000, -663.000000)">
            <g id="Group-7" transform="translate(1318.000000, 663.000000)">
                <circle id="Oval-2-Copy" fill="#40A3DE" cx="68.5" cy="68.5" r="68.5"></circle>
                <g id="服务" transform="translate(20.485981, 32.009346)" fill="#FFFFFF" fill-rule="nonzero">
                    <path d="M31.8081442,34.4786382 C33.1616822,34.4786382 34.5152203,35.1416889 35.8687583,35.1416889 C40.6061415,37.1308411 53.464753,51.0549065 55.4950601,53.0440587 C56.8485981,54.3701602 58.8789052,58.3484646 54.141522,60.3376168 L52.787984,60.3376168 C47.3738318,60.3376168 39.2526035,48.4027036 37.2222964,47.7396529 L36.5455274,47.7396529 C35.1919893,47.7396529 34.5152203,48.4027036 35.1919893,50.3918558 C35.8687583,52.381008 44.6667557,59.6745661 47.3738318,61.6637183 C49.4041389,63.6528705 52.111215,64.978972 54.141522,64.978972 C56.1718291,64.978972 58.2021362,64.3159212 59.5556742,62.9898198 C60.2324433,61.0006676 61.5859813,61.0006676 61.5859813,61.0006676 L85.2728972,61.0006676 C86.6264352,61.0006676 87.9799733,61.6637183 87.9799733,64.3159212 C87.9799733,66.9681242 85.2728972,67.6311749 85.2728972,67.6311749 L44.6667557,67.6311749 C41.9596796,66.9681242 20.3030708,47.7396529 20.3030708,47.7396529 L6.76769025,47.7396529 L6.76769025,34.4786382 L31.8081442,34.4786382 Z M85.9496662,54.3701602 L62.2627503,54.3701602 C61.5859813,53.0440587 60.9092123,50.3918558 59.5556742,49.0657543 L58.8789052,48.4027036 C45.3435247,33.8155874 41.2829105,30.5003338 38.5758344,29.1742323 C36.5455274,28.5111816 34.5152203,27.8481308 31.8081442,27.8481308 L0,27.8481308 L0,54.3701602 L16.2424566,54.3701602 C39.2526035,73.5986315 42.6364486,73.5986315 44.6667557,74.2616822 L82.5658211,74.2616822 C90.6870494,74.2616822 94.7476636,70.2833778 94.7476636,64.3159212 C94.7476636,53.7071095 85.9496662,54.3701602 85.9496662,54.3701602 Z" id="Shape"></path>
                    <path d="M53.8761224,0 L53.8761224,38.9873832 L94.7476636,38.9873832 L94.7476636,0 L53.8761224,0 Z M87.93574,32.489486 L60.6880459,32.489486 L60.6880459,6.4978972 L87.93574,6.4978972 L87.93574,32.489486 Z" id="Shape"></path>
                </g>
            </g>
        </g>
    </g>
</svg>