<?xml version="1.0" encoding="UTF-8"?>
<svg width="137px" height="138px" viewBox="0 0 137 138" version="1.1" xmlns="http://www.w3.org/2000/svg" xmlns:xlink="http://www.w3.org/1999/xlink">
    <!-- Generator: Sketch 49.1 (51147) - http://www.bohemiancoding.com/sketch -->
    <title>pc8</title>
    <desc>Created with Sketch.</desc>
    <defs></defs>
    <g id="Page-1" stroke="none" stroke-width="1" fill="none" fill-rule="evenodd">
        <g id="Apple-TV-Copy-2" transform="translate(-887.000000, -686.000000)">
            <g id="Group-15" transform="translate(887.000000, 686.000000)">
                <circle id="Oval-2" fill="#40A3DE" cx="68.5" cy="68.5" r="68.5"></circle>
                <g id="持久化" transform="translate(18.000000, 18.862319)" fill="#FFFFFF" fill-rule="nonzero">
                    <path d="M8.37081797,57.5288642 C11.1669526,76.7045638 26.4929355,91.7926257 45.7343861,94.1463281 L43.2037964,97.4747068 L44.9096144,99.3816825 C23.1718662,96.6395222 5.92288127,79.4105269 3.057283,57.6268616 L0.167064611,60.0291212 L0,54.3876516 L5.44806597,49.9018446 L11.2328991,54.0247965 L11.3999637,59.6662661 L8.37081797,57.5288642 Z M7.9971207,48.4928015 L5.44806597,46.6758775 L2.68886146,48.9474739 C3.81434963,24.2689136 23.2870529,4.39487254 47.7312483,2.75805178 L45.6130445,0 L51.2352095,0 L55.5094265,5.6238124 L51.2352095,11.2078961 L45.6130445,11.2078961 L48.0073446,8.04814344 C26.4999698,9.52958096 9.33012078,26.8583393 7.9971207,48.4919186 L7.9971207,48.4928015 Z M99.2214512,47.5145935 L102,45.2085657 L101.831177,50.8500353 L96.9256313,54.9729872 L91.4775652,50.4871802 L91.6463884,44.8457106 L93.8507625,46.6794089 C91.7914709,26.7903592 76.3107334,10.9059583 56.6612933,8.31564974 L58.7223434,5.62292957 L56.715809,2.98406367 C79.5315638,5.6820811 97.4857375,24.3271822 99.2214512,47.5154765 L99.2214512,47.5145935 Z M99.0877995,56.3820303 C96.6196391,79.7716163 77.6111997,98.2057142 54.0287062,99.6686118 L56.3130954,102.253623 L50.6909304,102.253623 L46.4167134,97.4755898 L50.6909304,91.8517773 L56.3130954,91.8517773 L54.4076791,94.3326114 C75.1368843,92.7037363 91.745748,76.3434744 93.8569175,55.6722116 L96.9256313,58.1989543 L99.0886788,56.3820303 L99.0877995,56.3820303 Z M50.9986811,63.5738005 C44.2000293,63.5738005 38.6886546,58.038274 38.6886546,51.2102418 C38.6886546,44.3813266 44.2000293,38.8458001 50.9986811,38.8458001 C57.7973328,38.8458001 63.3087076,44.3813266 63.3087076,51.2102418 C63.3087076,58.038274 57.7973329,63.5738005 50.9986811,63.5738005 Z M50.9986811,58.2731145 C54.8833737,58.2731145 58.0329819,55.1098304 58.0329819,51.208476 C58.0334484,49.3348986 57.2925707,47.5378848 55.9733581,46.2128172 C54.6541455,44.8877495 52.8646792,44.1431888 50.9986811,44.1429547 C47.1139884,44.1429547 43.9643802,47.3062388 43.9643802,51.208476 C43.964147,53.0819005 44.7051277,54.8786874 46.024315,56.2035641 C47.3435023,57.5284408 49.1328353,58.2728803 50.9986811,58.2731145 Z" id="Shape"></path>
                </g>
            </g>
        </g>
    </g>
</svg>